<?xml version="1.0" encoding="utf-8"?>
<!-- Generator: Adobe Illustrator 24.0.1, SVG Export Plug-In . SVG Version: 6.00 Build 0)  -->
<svg version="1.1" id="레이어_1" xmlns="http://www.w3.org/2000/svg" xmlns:xlink="http://www.w3.org/1999/xlink" x="0px"
	 y="0px" viewBox="0 0 900 900" style="enable-background:new 0 0 900 900;" xml:space="preserve">
<style type="text/css">
	.st0{fill:#FFFFFF;stroke:#000000;stroke-width:7;}
</style>
<g>
	<path class="st0" d="M313.75,295.37c-35.95,78.61-62.11,163.8-78.47,255.56h-77l3.78-9.44c-13.15,7.13-26.65,10.7-40.5,10.7
		c-18.88,0-33.64-6.5-44.27-19.51c-9.93-12.03-14.9-27.7-14.9-47c0-29.38,9.65-56.3,28.96-80.78c20.7-26.16,45.25-39.24,73.65-39.24
		c21.26,0,36.65,6.92,46.16,20.77c7.97-27.83,16.37-58.19,25.18-91.06H313.75z M190.17,434.61c0-14.64-7.21-21.96-21.61-21.96
		c-10.21,0-19.23,4.32-27.07,12.97c-7.84,8.65-11.75,18.13-11.75,28.44c0,15.34,7.62,23,22.87,23c10.77,0,19.86-4.46,27.28-13.39
		C186.74,455.32,190.17,445.63,190.17,434.61z"/>
	<path class="st0" d="M488.11,367.12c-23.64,61.27-42.31,122.53-56.02,183.8H361.8l3.15-10.28c-13.57,7.69-27.49,11.54-41.75,11.54
		c-18.88,0-33.64-6.5-44.27-19.51c-9.93-12.03-14.9-27.7-14.9-47c0-29.38,9.65-56.3,28.96-80.78c20.7-26.16,45.25-39.24,73.65-39.24
		c20.84,0,36.02,6.65,45.53,19.93l5.67-18.46H488.11z M391.8,434.61c0-14.64-7.21-21.96-21.61-21.96
		c-10.21,0-19.23,4.32-27.07,12.97c-7.84,8.65-11.75,18.13-11.75,28.44c0,15.34,7.62,23,22.87,23c10.77,0,19.86-4.46,27.28-13.39
		C388.38,455.32,391.8,445.63,391.8,434.61z"/>
	<path class="st0" d="M690.8,367.12L559.03,550.93l-0.21,0c-18.19,24.76-35.04,46.58-50.57,65.46
		c-12.31,14.97-29.31,22.45-50.99,22.45c-23.36,0-52.52-17.49-87.5-52.46c8.25,4.06,21.05,6.08,38.4,6.08
		c27.98,0,54.9-15.11,80.78-45.32l3.78-180.02h70.29l-1.69,83.37l59.5-83.37H690.8z"/>
	<path class="st0" d="M850.47,403c0,8.11-2.66,15.21-7.97,21.3c-5.32,6.08-12.03,9.13-20.14,9.13c-7.13,0-15.39-2.66-24.76-7.97
		c5.31-6.29,7.97-11.54,7.97-15.74c0-6.57-4.69-9.86-14.06-9.86c-12.31,0-18.46,6.08-18.46,18.25c0,7.27,4.89,15.11,14.69,23.5
		c14.27,12.03,23.36,20.63,27.28,25.81c9.93,12.73,14.9,28.05,14.9,45.95c0,20.28-9.86,37.28-29.58,50.99
		c-17.77,12.31-37.21,18.46-58.33,18.46c-21.26,0-40.64-4.9-58.12-14.69c-20.98-11.75-31.47-27.49-31.47-47.21
		c0-18.46,8.04-32.24,24.13-41.33c8.39-4.75,16.29-7.13,23.71-7.13c10.77,0,22.03,4.06,33.78,12.17
		c-8.81,4.34-13.22,11.54-13.22,21.61c0,13.71,7.48,20.56,22.45,20.56c18.88,0,28.33-7.69,28.33-23.08
		c0-8.95-5.46-17.13-16.37-24.55l-30.42-20.56c-10.77-9.23-16.16-20.56-16.16-33.99c0-39.72,26.72-59.59,80.15-59.59
		C829.91,365.03,850.47,377.69,850.47,403z"/>
</g>
</svg>
