<?xml version="1.0" encoding="utf-8"?>
<!-- Generator: Adobe Illustrator 24.0.1, SVG Export Plug-In . SVG Version: 6.00 Build 0)  -->
<svg version="1.1" id="레이어_1" xmlns="http://www.w3.org/2000/svg" xmlns:xlink="http://www.w3.org/1999/xlink" x="0px"
	 y="0px" viewBox="0 0 900 900" style="enable-background:new 0 0 900 900;" xml:space="preserve">
<style type="text/css">
	.st0{fill:#FFFFFF;stroke:#000000;stroke-width:7;}
</style>
<g>
	<path class="st0" d="M248.79,472c0,14.61-3.71,35.87-11.13,63.79c-3.3,12.49-9.6,33.4-18.91,62.73h-46.51l26.97-88.86
		c1.13-3.89,1.7-7.13,1.7-9.73c0-9.08-5.3-13.62-15.9-13.62c-12.61,0-21.27,7.19-25.98,21.56c-7.07,21.56-14.26,51.78-21.56,90.65
		H72.61c18.02-46.65,39.82-118.4,65.38-215.23h65.38c-9.66,23.33-18.67,47.01-27.04,71.04c9.54-8.01,21.97-12.02,37.29-12.02
		C237.07,442.31,248.79,452.21,248.79,472z"/>
	<path class="st0" d="M398.64,497.1c0,28.16-8.95,52.48-26.86,72.98c-18.73,21.32-42,31.98-69.8,31.98
		c-17.44,0-31.28-5.21-41.53-15.64c-10.25-10.43-15.37-24.36-15.37-41.79c0-25.68,10.04-49.13,30.13-70.33
		c20.08-21.21,42.91-31.81,68.48-31.81C380.32,442.49,398.64,460.69,398.64,497.1z M358.18,500.57c0-12.33-6.07-18.49-18.2-18.49
		c-8.6,0-16.23,3.64-22.88,10.92c-6.66,7.28-9.98,15.27-9.98,23.96c0,12.92,6.42,19.38,19.26,19.38c9.19,0,16.85-3.76,22.97-11.27
		C355.23,518.01,358.18,509.85,358.18,500.57z"/>
	<path class="st0" d="M582.42,443.73l-47.18,154.8h-59.2l4.6-14.84c-12.96,10.72-28.1,16.08-45.42,16.08
		c-24.39,0-36.58-9.95-36.58-29.86c0-15.31,3.83-36.58,11.49-63.79c3.18-11.28,9.9-32.07,20.15-62.38h46.61l-16.08,50.35
		c-8.34,26.28-12.51,42.07-12.51,47.37c0,9.54,6.24,14.32,18.73,14.32c14.6,0,23.55-5.36,26.85-16.09l29.43-95.95H582.42z"/>
	<path class="st0" d="M724.5,483.13c-6.83-3.42-18.84-5.12-36.03-5.12c-13.54,0-24.91,3.89-34.09,11.66
		c-10.13,8.6-24.02,43.94-41.68,106.03l-0.18,0.02l-0.85,2.81h-59.28l47-154.8h26.15c7.18-3.06,15.61-4.59,25.27-4.59
		C670.48,439.13,695.05,453.8,724.5,483.13z"/>
	<path class="st0" d="M865.34,473.95c0,6.83-2.24,12.81-6.71,17.94c-4.48,5.12-10.13,7.69-16.96,7.69c-6.01,0-12.96-2.24-20.85-6.71
		c4.48-5.3,6.71-9.72,6.71-13.25c0-5.54-3.95-8.31-11.84-8.31c-10.37,0-15.55,5.12-15.55,15.37c0,6.13,4.12,12.72,12.37,19.79
		c12.02,10.13,19.67,17.38,22.97,21.74c8.36,10.72,12.55,23.62,12.55,38.7c0,17.08-8.31,31.4-24.92,42.94
		c-14.96,10.37-31.34,15.55-49.12,15.55c-17.91,0-34.22-4.12-48.95-12.37c-17.67-9.9-26.51-23.15-26.51-39.76
		c0-15.55,6.77-27.15,20.32-34.81c7.07-4,13.72-6.01,19.97-6.01c9.07,0,18.55,3.42,28.45,10.25c-7.42,3.65-11.13,9.72-11.13,18.2
		c0,11.55,6.3,17.32,18.91,17.32c15.9,0,23.86-6.48,23.86-19.44c0-7.54-4.59-14.43-13.78-20.68l-25.62-17.32
		c-9.07-7.78-13.61-17.32-13.61-28.63c0-33.46,22.5-50.19,67.5-50.19C848.02,441.96,865.34,452.62,865.34,473.95z"/>
</g>
</svg>
