<?xml version="1.0" encoding="utf-8"?>
<!-- Generator: Adobe Illustrator 24.0.1, SVG Export Plug-In . SVG Version: 6.00 Build 0)  -->
<svg version="1.1" id="레이어_1" xmlns="http://www.w3.org/2000/svg" xmlns:xlink="http://www.w3.org/1999/xlink" x="0px"
	 y="0px" viewBox="0 0 900 900" style="enable-background:new 0 0 900 900;" xml:space="preserve">
<style type="text/css">
	.st0{fill:#FFFFFF;stroke:#000000;stroke-width:7;}
</style>
<g>
	<path class="st0" d="M445.11,448.69c0,17.74-4.93,44.66-14.79,80.75c-4.09,15.01-12.66,42.23-25.7,81.66h-59.85l34.8-114.36
		c1.23-4.56,1.85-8.74,1.85-12.54c0-11.7-6.75-17.55-20.24-17.55c-14.71,0-25.17,7.2-31.39,21.61L292.7,611.1h-0.23h-59.89
		l35.39-116.45c1.02-3.49,1.53-6.98,1.53-10.47c0-11.68-6.8-17.53-20.39-17.53c-16.47,0-26.97,7.6-31.5,22.81L180.44,611.1h-76.31
		l60.5-199.26h76.43l-4.55,14.56c11.68-10.01,26.01-15.39,42.99-16.15c33.36-1.67,51.18,9.25,53.45,32.75
		c3.33-4.4,7.58-9.02,12.74-13.88c12.13-11.68,27.44-17.97,45.95-18.88C427.29,408.43,445.11,421.25,445.11,448.69z"/>
	<path class="st0" d="M573.95,411.84l-60.5,199.26h-76.31l60.5-199.26H573.95z M600.24,367.26c0,10.46-6.22,18.88-18.65,25.25
		c-10.01,5.16-20.85,7.73-32.53,7.73c-11.83,0-22.9-2.58-33.21-7.73c-12.44-6.22-18.65-14.71-18.65-25.48
		c0-10.77,6.67-19.26,20.02-25.48c10.61-5,21.99-7.51,34.12-7.51c11.98,0,22.59,2.5,31.84,7.51
		C594.55,347.77,600.24,356.34,600.24,367.26z"/>
	<path class="st0" d="M767.43,448.24c0,18.81-4.78,46.18-14.33,82.12c-4.25,16.08-12.36,42.99-24.34,80.75h-59.87l34.71-114.39
		c1.45-5.01,2.18-9.18,2.18-12.52c0-11.69-6.8-17.53-20.39-17.53c-16.47,0-26.97,7.6-31.5,22.81L616.72,611.1h-76.31l60.5-199.26
		h76.43l-4.55,14.56c12.74-10.92,29.19-16.38,49.36-16.38C752.33,410.02,767.43,422.76,767.43,448.24z"/>
</g>
</svg>
