<?xml version="1.0" encoding="utf-8"?>
<!-- Generator: Adobe Illustrator 24.0.1, SVG Export Plug-In . SVG Version: 6.00 Build 0)  -->
<svg version="1.1" id="레이어_1" xmlns="http://www.w3.org/2000/svg" xmlns:xlink="http://www.w3.org/1999/xlink" x="0px"
	 y="0px" viewBox="0 0 900 900" style="enable-background:new 0 0 900 900;" xml:space="preserve">
<style type="text/css">
	.st0{fill:#FFFFFF;stroke:#000000;stroke-width:7;}
</style>
<g>
	<path class="st0" d="M338.17,382.36c0,11.6-3.8,21.74-11.4,30.44c-7.6,8.7-17.2,13.04-28.79,13.04c-10.2,0-21.99-3.8-35.39-11.4
		c7.6-9,11.4-16.49,11.4-22.49c0-9.39-6.7-14.09-20.09-14.09c-17.59,0-26.39,8.7-26.39,26.09c0,10.4,7,21.59,20.99,33.59
		c20.39,17.2,33.38,29.49,38.98,36.88c14.19,18.19,21.29,40.08,21.29,65.67c0,28.99-14.09,53.28-42.28,72.87
		c-25.39,17.59-53.18,26.39-83.36,26.39c-30.39,0-58.08-7-83.06-20.99c-29.99-16.79-44.98-39.28-44.98-67.47
		c0-26.39,11.49-46.08,34.49-59.08c11.99-6.79,23.29-10.2,33.89-10.2c15.39,0,31.49,5.8,48.28,17.39
		c-12.59,6.2-18.89,16.49-18.89,30.89c0,19.59,10.69,29.39,32.09,29.39c26.99,0,40.48-10.99,40.48-32.99
		c0-12.79-7.8-24.49-23.39-35.08l-43.48-29.39c-15.4-13.19-23.09-29.39-23.09-48.58c0-56.77,38.18-85.16,114.55-85.16
		C308.79,328.08,338.17,346.18,338.17,382.36z"/>
	<path class="st0" d="M581.97,424.04c0,11.8-1.1,27.99-3.3,48.58H405.65c-1.6,4.6-2.4,9.9-2.4,15.89c0,9.4,4.5,17.09,13.49,23.09
		c7.99,5.4,16.89,8.1,26.69,8.1c17.59,0,33.68-8.59,48.28-25.79h75.57c-13,31.39-32.59,56.68-58.78,75.87
		c-27.19,19.99-57.38,29.99-90.56,29.99c-29.39,0-52.83-8.79-70.32-26.39c-17.5-17.59-26.24-41.18-26.24-70.77
		c0-43.78,16.99-83.67,50.98-119.65c33.98-35.98,72.77-53.98,116.35-53.98C550.88,328.98,581.97,360.67,581.97,424.04z
		 M514.5,430.94c-1.8-22.19-14-33.29-36.58-33.29c-18.79,0-36.99,11.1-54.58,33.29H514.5z"/>
	<path class="st0" d="M831.76,428.24h-67.47c-4.6-20.39-16.9-30.59-36.88-30.59c-18.59,0-35.74,8.3-51.43,24.89
		c-15.7,16.6-23.54,34.19-23.54,52.78c0,29.59,13.39,44.38,40.18,44.38c17.59,0,33.68-8.59,48.28-25.79h75.57
		c-13,31.39-32.59,56.68-58.78,75.87c-27.19,19.99-57.38,29.99-90.56,29.99c-29.39,0-52.83-8.79-70.32-26.39
		c-17.5-17.59-26.24-41.18-26.24-70.77c0-43.78,16.99-83.67,50.98-119.65c33.98-35.98,72.77-53.98,116.35-53.98
		C799.27,328.98,830.56,362.07,831.76,428.24z"/>
</g>
</svg>
